<?xml version="1.0" standalone="no"?><svg xmlns="http://www.w3.org/2000/svg" viewBox="0 0 1440 320"><path fill="#fff" fill-opacity="1" d="M0,160L24,181.3C48,203,96,245,144,266.7C192,288,240,288,288,256C336,224,384,160,432,138.7C480,117,528,139,576,128C624,117,672,75,720,96C768,117,816,203,864,208C912,213,960,139,1008,96C1056,53,1104,43,1152,53.3C1200,64,1248,96,1296,90.7C1344,85,1392,43,1416,21.3L1440,0L1440,320L1416,320C1392,320,1344,320,1296,320C1248,320,1200,320,1152,320C1104,320,1056,320,1008,320C960,320,912,320,864,320C816,320,768,320,720,320C672,320,624,320,576,320C528,320,480,320,432,320C384,320,336,320,288,320C240,320,192,320,144,320C96,320,48,320,24,320L0,320Z"></path></svg>